<?xml version="1.0" encoding="UTF-8" standalone="no"?>
<svg
   viewBox="0 0 500 500"
   version="1.1"
   id="svg19"
   sodipodi:docname="Logo_v18_12_white_corrected.svg"
   inkscape:version="1.2.2 (732a01da63, 2022-12-09)"
   xmlns:inkscape="http://www.inkscape.org/namespaces/inkscape"
   xmlns:sodipodi="http://sodipodi.sourceforge.net/DTD/sodipodi-0.dtd"
   xmlns="http://www.w3.org/2000/svg"
   xmlns:svg="http://www.w3.org/2000/svg">
  <sodipodi:namedview
     id="namedview21"
     pagecolor="#505050"
     bordercolor="#eeeeee"
     borderopacity="1"
     inkscape:showpageshadow="0"
     inkscape:pageopacity="0"
     inkscape:pagecheckerboard="0"
     inkscape:deskcolor="#505050"
     showgrid="false"
     inkscape:zoom="1.674"
     inkscape:cx="249.70131"
     inkscape:cy="250.29869"
     inkscape:window-width="1920"
     inkscape:window-height="1017"
     inkscape:window-x="-8"
     inkscape:window-y="32"
     inkscape:window-maximized="1"
     inkscape:current-layer="Benutzerdefinierte_Größe_1" />
  <defs
     id="defs7">
    <style
       id="style2">
      .cls-1 {
        clip-path: url(#clip-Benutzerdefinierte_Größe_1);
      }

      .cls-2, .cls-3 {
        fill: #fff;
      }

      .cls-3 {
        font-size: 90px;
        font-family: Orbitron-Regular, Orbitron;
      }
    </style>
    <clipPath
       id="clip-Benutzerdefinierte_Größe_1">
      <rect
         width="500"
         height="500"
         id="rect4" />
    </clipPath>
  </defs>
  <g
     id="Benutzerdefinierte_Größe_1"
     data-name="Benutzerdefinierte Größe – 1"
     class="cls-1"
     clip-path="url(#clip-Benutzerdefinierte_Größe_1)">
    <g
       id="Logo_TUDSaT"
       data-name="Logo TUDSaT"
       transform="translate(198.144 344.463)">
      <g
         id="Logo_TUDSaT-2"
         data-name="Logo TUDSaT"
         transform="translate(-131.225 -242.658)">
        <path
           id="Pfad_1"
           data-name="Pfad 1"
           class="cls-2"
           d="M434.939,326.9c-.977-2.042-1.461-5.281.794-5.809,5.421,11.239,10.407,22.877,12.039,35.186s-.411,25.5-7.983,35.5c-6.778,8.95-17.367,14.591-28.338,17.746-20.682,5.948-42.922,3.866-64.043-.388-65.481-13.189-125.181-46.456-177.486-86.917,10.7-2.768,21.132,4.414,29.991,10.861a439.815,439.815,0,0,0,102.4,55.37c26.375,10.023,54.081,17.588,82.391,18.435,18.888.565,39.936-2.975,51.5-17.488,6.915-8.679,9.31-20.183,8.392-31.12S439.7,336.851,434.939,326.9Z"
           transform="translate(-71.861 -124.206)" />
        <path
           id="Pfad_3"
           data-name="Pfad 3"
           class="cls-2"
           d="M227.933,1.139a3.566,3.566,0,0,1,.4,2.018q.016,18.739.032,37.477c0,1.775-.572,4.154-2.4,4.155l-39.6.025a4.9,4.9,0,0,1-2.811-.566c-1.231-.848-1.342-2.55-1.336-4.015q.078-17.869.156-35.738a4.942,4.942,0,0,1,.811-3.3C184.147.086,185.85,0,187.347,0l37.231.027C225.813.028,227.26.134,227.933,1.139Z"
           transform="translate(-76.392 0)" />
        <path
           id="Pfad_8"
           data-name="Pfad 8"
           class="cls-2"
           d="M119.777,20.6l-21-1.854c-13.365-1.18-26.939-2.351-40.122.091s-26.159,9.018-33.117,20.16c-9.348,14.968-5.929,34.349.712,50.623A151.044,151.044,0,0,0,44.855,122.6c-2.323,1.667-5.76,1.028-8.025-.712s-3.632-4.328-4.931-6.833c-6.611-12.751-13.3-25.711-16.047-39.734s-1.1-29.5,7.76-40.9c11.981-15.418,33.81-19.872,53.7-20.232C91.735,13.932,106.428,15.286,119.777,20.6Z"
           transform="translate(-14.639 -5.478)" />
        <path
           id="Pfad_9"
           data-name="Pfad 9"
           class="cls-2"
           d="M420.879,146.7c-43.394-42.451-98.221-72.241-154.572-96.4-1.939-.831-4.248-2.873-2.922-4.479a490.658,490.658,0,0,1,163.8,101.223c-.033,1.314-1.682,2.121-3.006,1.845A7.108,7.108,0,0,1,420.879,146.7Z"
           transform="translate(-106.158 -17.727)" />
        <g
           aria-label="TUDSaT"
           transform="translate(-10.652 191.524)"
           id="TUDSaT"
           class="cls-3"
           style="font-size:90px;font-family:Orbitron-Regular, Orbitron;fill:#ffffff">
          <path
             d="M 30.6,0 V 0 -57.51 H 1.8 v -7.29 h 64.8 v 7.29 H 37.89 V 0 Z"
             id="path858" />
          <path
             d="m 83.970074,0 q -2.97,0 -5.49,-1.44 -2.43,-1.44 -3.87,-3.87 -1.44,-2.52 -1.44,-5.49 v -54 h 7.29 v 54 q 0,1.44 0.99,2.52 1.08,0.99 2.52,0.99 h 43.199996 q 1.44,0 2.43,-0.99 1.08,-1.08 1.08,-2.52 v -54 h 7.29 v 54 q 0,2.97 -1.44,5.49 -1.44,2.43 -3.96,3.87 -2.43,1.44 -5.4,1.44 H 83.970074 Z"
             id="path860" />
          <path
             d="m 148.04999,0 v -64.8 h 54 q 2.97,0 5.4,1.44 2.52,1.44 3.96,3.96 1.44,2.43 1.44,5.4 v 43.2 q 0,2.97 -1.44,5.49 -1.44,2.43 -3.96,3.87 -2.43,1.44 -5.4,1.44 z m 10.8,-7.29 h 43.2 q 1.44,0 2.43,-0.99 1.08,-1.08 1.08,-2.52 V -54 q 0,-1.44 -1.08,-2.43 -0.99,-1.08 -2.43,-1.08 h -43.2 q -1.44,0 -2.52,1.08 -0.99,0.99 -0.99,2.43 v 43.2 q 0,1.44 0.99,2.52 1.08,0.99 2.52,0.99 z"
             id="path862" />
          <path
             d="m 233.27995,0 q -2.97,0 -5.49,-1.44 -2.43,-1.44 -3.87,-3.87 -1.44,-2.52 -1.44,-5.49 v -2.52 h 7.29 v 2.52 q 0,1.44 0.99,2.52 1.08,0.99 2.52,0.99 h 43.2 q 1.44,0 2.43,-0.99 1.08,-1.08 1.08,-2.52 v -14.49 q 0,-1.44 -1.08,-2.43 -0.99,-0.99 -2.43,-0.99 h -43.2 q -2.97,0 -5.49,-1.44 -2.43,-1.53 -3.87,-3.96 -1.44,-2.43 -1.44,-5.4 V -54 q 0,-2.97 1.44,-5.4 1.44,-2.52 3.87,-3.96 2.52,-1.44 5.49,-1.44 h 43.2 q 2.97,0 5.4,1.44 2.52,1.44 3.96,3.96 1.44,2.43 1.44,5.4 v 2.52 h -7.29 V -54 q 0,-1.44 -1.08,-2.43 -0.99,-1.08 -2.43,-1.08 h -43.2 q -1.44,0 -2.52,1.08 -0.99,0.99 -0.99,2.43 v 14.49 q 0,1.44 0.99,2.43 1.08,0.99 2.52,0.99 h 43.2 q 2.97,0 5.4,1.53 2.52,1.44 3.96,3.87 1.44,2.43 1.44,5.4 v 14.49 q 0,2.97 -1.44,5.49 -1.44,2.43 -3.96,3.87 -2.43,1.44 -5.4,1.44 z"
             id="path864" />
          <path
             d="m 307.44,0 q -2.97,0 -5.49,-1.44 -2.43,-1.53 -3.96,-3.96 -1.44,-2.52 -1.44,-5.49 v -18.9 h 45.72 v -11.52 q 0,-1.44 -1.08,-2.43 -0.99,-1.08 -2.43,-1.08 h -42.21 v -7.38 h 42.21 q 3.06,0 5.49,1.53 2.52,1.44 3.96,3.96 1.53,2.43 1.53,5.4 V 0 Z m 0,-7.38 h 34.83 v -15.03 h -38.34 v 11.52 q 0,1.44 0.99,2.52 1.08,0.99 2.52,0.99 z"
             id="path866" />
          <path
             d="m 384.93002,0 v 0 -57.51 h -28.8 v -7.29 h 64.8 v 7.29 h -28.71 V 0 Z"
             id="path868" />
        </g>
      </g>
    </g>
  </g>
</svg>
